<svg width="512" height="512" viewBox="0 0 512 512" fill="none" xmlns="http://www.w3.org/2000/svg">
<rect width="512" height="512" fill="#010A27"/>
<path fill-rule="evenodd" clip-rule="evenodd" d="M253.004 122.568C252.021 123.924 242.523 138.21 231.895 154.314C221.268 170.419 198.561 204.819 181.435 230.757C122.507 320.009 115.788 330.305 115.788 331.356C115.788 332.927 117.007 332.671 123.213 329.8C133.24 325.161 147.735 319.295 157.737 315.83C163.107 313.969 168.126 311.954 168.892 311.352C169.657 310.751 176.735 300.468 184.62 288.503C250.278 188.877 254.686 182.321 256.015 182.321C257.049 182.321 259.611 185.748 267.453 197.617C273.011 206.029 283.346 221.66 290.42 232.351C297.494 243.042 311.86 264.838 322.345 280.787C332.83 296.736 342.084 310.382 342.91 311.113C343.736 311.844 347.964 313.66 352.305 315.148C362.256 318.559 376.85 324.395 386.736 328.919C394.842 332.628 397.197 333.189 396.701 331.291C396.54 330.676 388.452 318.13 378.728 303.409C369.003 288.688 356.841 270.257 351.7 262.451C341.371 246.764 263.7 129.576 259.941 124.007C256.924 119.535 255.425 119.224 253.004 122.568ZM253.674 236.378C252.673 237.542 248.127 244.01 243.57 250.753C239.013 257.495 231.718 268.23 227.358 274.608C217.028 289.718 210.111 300.51 210.111 301.515C210.111 302.884 211.973 303.134 217.355 302.485C232.936 300.608 264.906 299.95 281.49 301.164C285.872 301.485 292.103 301.947 295.337 302.192C300.492 302.581 301.268 302.505 301.625 301.575C301.904 300.849 298.837 295.796 291.921 285.584C286.359 277.373 276.749 263.162 270.565 254.006C259.836 238.12 256.98 234.263 255.952 234.263C255.699 234.263 254.674 235.215 253.674 236.378ZM233.054 321.576C192.516 324.826 159.533 333.327 131.084 347.86C117.376 354.861 107.379 361.879 98.2982 370.871C88.7881 380.29 82.0103 388.666 82.0103 391C82.0103 392.301 83.9878 391.657 91.4202 387.936C126.049 370.601 173.506 358.796 222.48 355.334C236.284 354.359 278.206 354.328 290.413 355.285C340.188 359.185 382.121 369.564 418.449 386.976C423.846 389.563 428.651 391.68 429.124 391.68C432.397 391.68 426.191 383.272 413.804 370.923C404.413 361.562 396.307 355.758 382.824 348.741C356.226 334.898 328.68 326.909 292.325 322.493C282.416 321.29 244.037 320.696 233.054 321.576Z" fill="url(#paint0_linear_4_123)"/>
<defs>
<linearGradient id="paint0_linear_4_123" x1="256" y1="120.32" x2="256" y2="391.68" gradientUnits="userSpaceOnUse">
<stop stop-color="#F1DAB4"/>
<stop offset="1" stop-color="#FAA52E"/>
</linearGradient>
</defs>
</svg>
