<svg width="554" height="282" viewBox="0 0 554 282" fill="none" xmlns="http://www.w3.org/2000/svg">
<path fill-rule="evenodd" clip-rule="evenodd" d="M275.076 1.4436C274.446 2.31389 268.348 11.4856 261.525 21.8247C254.702 32.1642 240.124 54.2487 229.129 70.9016C191.297 128.202 186.983 134.812 186.983 135.486C186.983 136.495 187.765 136.331 191.75 134.487C198.188 131.509 207.493 127.743 213.915 125.518C217.362 124.324 220.585 123.03 221.076 122.644C221.567 122.258 226.111 115.656 231.174 107.975C273.327 44.0139 276.157 39.8053 277.01 39.8053C277.673 39.8053 279.319 42.0054 284.353 49.6252C287.922 55.0261 294.557 65.0608 299.098 71.9245C303.64 78.7882 312.863 92.7815 319.594 103.021C326.325 113.26 332.267 122.021 332.797 122.491C333.327 122.96 336.041 124.126 338.829 125.081C345.217 127.27 354.587 131.018 360.933 133.922C366.137 136.303 367.65 136.663 367.331 135.445C367.228 135.05 362.035 126.995 355.792 117.544C349.549 108.094 341.741 96.2606 338.44 91.2492C331.809 81.1781 281.943 5.94274 279.531 2.36708C277.593 -0.504008 276.631 -0.703265 275.076 1.4436ZM275.507 74.5104C274.864 75.2575 271.946 79.4101 269.02 83.7386C266.094 88.0675 261.411 94.959 258.612 99.0539C251.98 108.755 247.539 115.683 247.539 116.329C247.539 117.208 248.735 117.368 252.19 116.951C262.193 115.746 282.718 115.323 293.365 116.103C296.178 116.309 300.178 116.606 302.255 116.763C305.564 117.013 306.063 116.964 306.292 116.367C306.471 115.901 304.502 112.657 300.061 106.1C296.491 100.829 290.321 91.7058 286.351 85.8274C279.463 75.6286 277.63 73.152 276.97 73.152C276.807 73.152 276.149 73.7633 275.507 74.5104ZM262.269 129.208C236.243 131.294 215.068 136.752 196.803 146.082C188.003 150.577 181.584 155.082 175.755 160.856C169.649 166.902 165.298 172.28 165.298 173.779C165.298 174.613 166.567 174.2 171.339 171.811C193.571 160.682 224.038 153.103 255.48 150.881C264.342 150.254 291.256 150.235 299.093 150.849C331.049 153.353 357.97 160.017 381.293 171.195C384.759 172.856 387.843 174.215 388.147 174.215C390.248 174.215 386.264 168.817 378.311 160.889C372.282 154.879 367.078 151.153 358.422 146.648C341.346 137.761 323.661 132.632 300.321 129.797C293.959 129.024 269.32 128.643 262.269 129.208Z" fill="url(#paint0_linear_4_113)"/>
<path d="M33.147 207.49V280.061H17.2598V207.49H33.147ZM46.5825 250.542H28.0474V237.205H45.798C48.6747 237.205 50.8649 236.518 52.3686 235.145C53.8724 233.772 54.6242 231.778 54.6242 229.163C54.6242 226.613 53.8724 224.685 52.3686 223.377C50.8649 222.069 48.6747 221.416 45.798 221.416H29.1262V207.49H47.4651C54.7877 207.49 60.5084 209.288 64.6273 212.884C68.8116 216.479 70.9037 221.383 70.9037 227.594C70.9037 231.844 69.8577 235.44 67.7655 238.382C65.6734 241.324 62.6332 243.416 58.6451 244.658V243.285C62.8947 244.2 66.131 246.096 68.3539 248.973C70.6422 251.85 71.7864 255.544 71.7864 260.055C71.7864 264.305 70.8384 267.933 68.9424 270.941C67.1117 273.948 64.3658 276.236 60.7045 277.806C57.1086 279.309 52.6955 280.061 47.4651 280.061H29.1262V266.135H46.5825C49.5246 266.135 51.7475 265.481 53.2512 264.174C54.755 262.801 55.5068 260.774 55.5068 258.094C55.5068 255.609 54.7223 253.746 53.1532 252.504C51.6494 251.196 49.4592 250.542 46.5825 250.542Z" fill="white"/>
<path d="M128.572 280.061H82.4798V207.49H128.572V222.2H93.9539L98.367 218.081V236.42H125.14V250.346H98.367V269.47L93.9539 265.351H128.572V280.061Z" fill="white"/>
<path d="M151.475 280.061H134.902L160.792 207.49H176.287L202.079 280.061H185.211L180.112 264.762H156.673L151.475 280.061ZM166.48 235.93L161.282 251.425H175.601L170.403 235.93C170.011 234.688 169.618 233.413 169.226 232.105C168.834 230.798 168.572 229.719 168.441 228.869C168.311 229.719 168.049 230.798 167.657 232.105C167.33 233.347 166.938 234.622 166.48 235.93Z" fill="white"/>
<path d="M237.981 281.238C230.724 281.238 224.447 279.734 219.152 276.727C213.856 273.654 209.77 269.339 206.893 263.782C204.016 258.159 202.578 251.523 202.578 243.874C202.578 236.289 204.082 229.686 207.089 224.063C210.097 218.441 214.314 214.093 219.74 211.02C225.167 207.882 231.476 206.313 238.668 206.313C244.748 206.313 250.142 207.424 254.849 209.647C259.622 211.805 263.512 214.878 266.519 218.866C269.527 222.854 271.39 227.561 272.109 232.988H255.339C254.293 229.327 252.267 226.515 249.259 224.554C246.317 222.592 242.656 221.612 238.275 221.612C234.353 221.612 230.953 222.494 228.076 224.26C225.265 226.025 223.107 228.575 221.603 231.909C220.1 235.178 219.348 239.133 219.348 243.775C219.348 248.287 220.1 252.209 221.603 255.544C223.173 258.878 225.363 261.461 228.174 263.291C231.051 265.056 234.418 265.939 238.275 265.939C242.721 265.939 246.48 264.926 249.553 262.899C252.691 260.807 254.751 257.963 255.732 254.367H272.207C271.357 259.728 269.363 264.435 266.225 268.489C263.152 272.542 259.197 275.681 254.359 277.904C249.521 280.127 244.061 281.238 237.981 281.238Z" fill="white"/>
<path d="M349.912 243.677C349.912 251.065 348.408 257.603 345.401 263.291C342.393 268.914 338.209 273.327 332.848 276.531C327.487 279.669 321.276 281.238 314.215 281.238C307.219 281.238 301.041 279.669 295.68 276.531C290.384 273.327 286.232 268.914 283.225 263.291C280.283 257.669 278.812 251.163 278.812 243.775C278.812 236.388 280.315 229.882 283.323 224.26C286.33 218.572 290.482 214.158 295.778 211.02C301.139 207.817 307.317 206.215 314.313 206.215C321.374 206.215 327.552 207.817 332.848 211.02C338.209 214.158 342.393 218.539 345.401 224.162C348.408 229.784 349.912 236.289 349.912 243.677ZM333.142 243.677C333.142 239.035 332.39 235.08 330.887 231.811C329.383 228.477 327.225 225.927 324.414 224.162C321.668 222.396 318.334 221.514 314.411 221.514C310.488 221.514 307.121 222.396 304.31 224.162C301.498 225.927 299.341 228.477 297.837 231.811C296.333 235.08 295.582 239.035 295.582 243.677C295.582 248.319 296.333 252.307 297.837 255.642C299.341 258.976 301.498 261.526 304.31 263.291C307.121 265.056 310.488 265.939 314.411 265.939C318.334 265.939 321.668 265.056 324.414 263.291C327.225 261.461 329.383 258.878 330.887 255.544C332.39 252.209 333.142 248.254 333.142 243.677Z" fill="white"/>
<path d="M376.673 280.061H360.982V207.49H376.673L412.174 261.036H407.27V207.49H422.961V280.061H407.27L371.769 226.613H376.673V280.061Z" fill="white"/>
<path d="M465.208 207.49V280.061H449.321V207.49H465.208Z" fill="url(#paint1_linear_4_113)"/>
<path d="M496.238 280.061H480.35V207.49H508.398C517.225 207.49 524.024 209.549 528.797 213.668C533.635 217.722 536.054 223.508 536.054 231.026C536.054 235.734 535.041 239.755 533.014 243.089C531.052 246.423 528.045 249.137 523.991 251.229L536.74 280.061H519.382L508.496 254.661H496.238V280.061ZM496.238 221.612V240.735H508.3C511.765 240.735 514.446 239.885 516.342 238.185C518.303 236.486 519.284 234.099 519.284 231.026C519.284 227.954 518.336 225.633 516.44 224.063C514.609 222.429 511.929 221.612 508.398 221.612H496.238Z" fill="url(#paint2_linear_4_113)"/>
<defs>
<linearGradient id="paint0_linear_4_113" x1="277" y1="0" x2="277" y2="174.215" gradientUnits="userSpaceOnUse">
<stop stop-color="#F1DAB4"/>
<stop offset="1" stop-color="#FAA52E"/>
</linearGradient>
<linearGradient id="paint1_linear_4_113" x1="277" y1="206.215" x2="277" y2="281.238" gradientUnits="userSpaceOnUse">
<stop stop-color="#F1DAB4"/>
<stop offset="1" stop-color="#FAA52E"/>
</linearGradient>
<linearGradient id="paint2_linear_4_113" x1="277" y1="206.215" x2="277" y2="281.238" gradientUnits="userSpaceOnUse">
<stop stop-color="#F1DAB4"/>
<stop offset="1" stop-color="#FAA52E"/>
</linearGradient>
</defs>
</svg>
