<svg width="554" height="106" viewBox="0 0 554 106" fill="none" xmlns="http://www.w3.org/2000/svg">
<path fill-rule="evenodd" clip-rule="evenodd" d="M82.4144 0.878352C82.0307 1.40787 78.3204 6.98837 74.1688 13.2791C70.0176 19.5701 61.1477 33.0073 54.4578 43.1397C31.439 78.0036 28.8146 82.0254 28.8146 82.4359C28.8146 83.0496 29.2906 82.9498 31.7148 81.828C35.6319 80.0159 41.2938 77.7248 45.2008 76.371C47.2985 75.644 49.2592 74.8571 49.5582 74.6221C49.857 74.3871 52.6218 70.3705 55.7021 65.6967C81.3499 26.78 83.0716 24.2193 83.5907 24.2193C83.9945 24.2193 84.9955 25.5579 88.0586 30.1942C90.23 33.4803 94.267 39.5859 97.0303 43.762C99.7935 47.9382 105.405 56.4523 109.501 62.6824C113.597 68.9124 117.211 74.2432 117.534 74.5287C117.857 74.8143 119.508 75.5235 121.204 76.1046C125.091 77.437 130.792 79.7169 134.653 81.4839C137.82 82.9328 138.74 83.1519 138.546 82.4108C138.483 82.1705 135.324 77.2694 131.525 71.5191C127.727 65.7689 122.976 58.5692 120.968 55.52C116.933 49.3923 86.5925 3.61582 85.1245 1.44023C83.9457 -0.306661 83.3604 -0.427898 82.4144 0.878352ZM82.6763 45.3354C82.2854 45.79 80.5094 48.3166 78.7294 50.9503C76.9494 53.5842 74.0996 57.7773 72.3966 60.2688C68.3613 66.1712 65.6594 70.3867 65.6594 70.7795C65.6594 71.3143 66.3869 71.4119 68.4893 71.1584C74.5754 70.425 87.0638 70.1678 93.542 70.6423C95.2536 70.7678 97.6876 70.9483 98.951 71.0439C100.965 71.1958 101.268 71.1661 101.407 70.8027C101.516 70.5191 100.318 68.5454 97.6164 64.5562C95.444 61.3487 91.6901 55.7979 89.2742 52.2212C85.0831 46.0158 83.9678 44.5089 83.5663 44.5089C83.4674 44.5089 83.0669 44.8808 82.6763 45.3354ZM74.6217 78.6158C58.7866 79.8852 45.9026 83.2059 34.7894 88.8828C29.4349 91.6178 25.5296 94.359 21.9826 97.8717C18.2677 101.551 15.6201 104.823 15.6201 105.735C15.6201 106.242 16.3926 105.991 19.2959 104.538C32.8229 97.7659 51.3606 93.1546 70.4911 91.8025C75.8834 91.4214 92.2589 91.4094 97.0273 91.7831C116.471 93.3067 132.851 97.3611 147.042 104.163C149.15 105.173 151.026 106 151.211 106C152.49 106 150.066 102.716 145.227 97.8919C141.559 94.2353 138.392 91.9681 133.125 89.2268C122.736 83.8196 111.976 80.699 97.7742 78.974C93.9035 78.504 78.9119 78.272 74.6217 78.6158Z" fill="white"/>
<path d="M186.646 27.6907V78.3781H175.549V27.6907H186.646ZM196.03 57.7607H183.084V48.4452H195.482C197.491 48.4452 199.021 47.9657 200.071 47.0068C201.121 46.0478 201.646 44.655 201.646 42.8285C201.646 41.0476 201.121 39.7005 200.071 38.7872C199.021 37.8739 197.491 37.4172 195.482 37.4172H183.837V27.6907H196.646C201.761 27.6907 205.756 28.9465 208.633 31.4581C211.556 33.9696 213.017 37.3944 213.017 41.7325C213.017 44.7007 212.286 47.2122 210.825 49.2671C209.364 51.322 207.24 52.7833 204.455 53.6509V52.692C207.423 53.3313 209.683 54.6555 211.236 56.6648C212.834 58.674 213.633 61.254 213.633 64.4049C213.633 67.373 212.971 69.9074 211.647 72.008C210.368 74.1085 208.45 75.7068 205.893 76.8027C203.382 77.853 200.299 78.3781 196.646 78.3781H183.837V68.6516H196.03C198.085 68.6516 199.637 68.195 200.688 67.2817C201.738 66.3228 202.263 64.9072 202.263 63.0349C202.263 61.2997 201.715 59.9983 200.619 59.1306C199.569 58.2173 198.039 57.7607 196.03 57.7607Z" fill="white"/>
<path d="M253.295 78.3781H221.102V27.6907H253.295V37.9652H229.116L232.199 35.0884V47.8972H250.898V57.6237H232.199V70.9805L229.116 68.1037H253.295V78.3781Z" fill="white"/>
<path d="M269.292 78.3781H257.716L275.799 27.6907H286.622L304.636 78.3781H292.855L289.293 67.6927H272.922L269.292 78.3781ZM279.772 47.5547L276.142 58.3772H286.142L282.512 47.5547C282.238 46.6871 281.964 45.7966 281.69 44.8834C281.416 43.9701 281.233 43.2166 281.142 42.623C281.051 43.2166 280.868 43.9701 280.594 44.8834C280.366 45.751 280.092 46.6414 279.772 47.5547Z" fill="white"/>
<path d="M329.712 79.2001C324.643 79.2001 320.259 78.1498 316.561 76.0493C312.862 73.903 310.008 70.8892 307.998 67.0077C305.989 63.0806 304.985 58.4457 304.985 53.1029C304.985 47.8059 306.035 43.1938 308.135 39.2667C310.236 35.3395 313.181 32.3028 316.972 30.1566C320.762 27.9647 325.168 26.8688 330.191 26.8688C334.438 26.8688 338.205 27.6451 341.493 29.1977C344.827 30.7046 347.544 32.8508 349.644 35.6363C351.745 38.4219 353.046 41.7097 353.549 45.4998H341.836C341.105 42.9426 339.69 40.9791 337.589 39.6091C335.534 38.2392 332.977 37.5542 329.917 37.5542C327.177 37.5542 324.803 38.1707 322.794 39.4036C320.83 40.6366 319.323 42.4175 318.273 44.7464C317.223 47.0296 316.698 49.7923 316.698 53.0344C316.698 56.1853 317.223 58.9251 318.273 61.254C319.369 63.5829 320.899 65.3866 322.862 66.6652C324.871 67.8982 327.223 68.5146 329.917 68.5146C333.023 68.5146 335.648 67.8068 337.794 66.3913C339.986 64.93 341.425 62.9436 342.11 60.4321H353.617C353.024 64.1765 351.631 67.4644 349.439 70.2956C347.293 73.1267 344.53 75.3186 341.151 76.8712C337.772 78.4238 333.959 79.2001 329.712 79.2001Z" fill="white"/>
<path d="M407.89 52.9659C407.89 58.126 406.84 62.6924 404.739 66.6652C402.639 70.5924 399.716 73.6747 395.971 75.9123C392.227 78.1042 387.889 79.2001 382.957 79.2001C378.071 79.2001 373.756 78.1042 370.011 75.9123C366.313 73.6747 363.413 70.5924 361.312 66.6652C359.257 62.7381 358.23 58.1945 358.23 53.0344C358.23 47.8744 359.28 43.3308 361.381 39.4036C363.481 35.4308 366.381 32.3485 370.08 30.1566C373.824 27.9191 378.14 26.8003 383.026 26.8003C387.957 26.8003 392.273 27.9191 395.971 30.1566C399.716 32.3485 402.639 35.408 404.739 39.3351C406.84 43.2623 407.89 47.8059 407.89 52.9659ZM396.177 52.9659C396.177 49.7238 395.652 46.9611 394.602 44.6779C393.551 42.349 392.044 40.5681 390.081 39.3351C388.163 38.1022 385.834 37.4857 383.094 37.4857C380.354 37.4857 378.003 38.1022 376.039 39.3351C374.075 40.5681 372.569 42.349 371.518 44.6779C370.468 46.9611 369.943 49.7238 369.943 52.9659C369.943 56.2081 370.468 58.9936 371.518 61.3225C372.569 63.6514 374.075 65.4323 376.039 66.6652C378.003 67.8982 380.354 68.5146 383.094 68.5146C385.834 68.5146 388.163 67.8982 390.081 66.6652C392.044 65.3866 393.551 63.5829 394.602 61.254C395.652 58.9251 396.177 56.1624 396.177 52.9659Z" fill="white"/>
<path d="M426.581 78.3781H415.621V27.6907H426.581L451.377 65.0898H447.952V27.6907H458.911V78.3781H447.952L423.156 41.0476H426.581V78.3781Z" fill="white"/>
<path d="M488.418 27.6907V78.3781H477.322V27.6907H488.418Z" fill="white"/>
<path d="M510.091 78.3781H498.995V27.6907H518.585C524.749 27.6907 529.498 29.1292 532.832 32.006C536.211 34.8372 537.901 38.8785 537.901 44.1299C537.901 47.4177 537.193 50.2261 535.777 52.555C534.407 54.8838 532.307 56.7789 529.475 58.2402L538.38 78.3781H526.256L518.653 60.6376H510.091V78.3781ZM510.091 37.5542V50.9111H518.516C520.936 50.9111 522.808 50.3174 524.133 49.1301C525.503 47.9429 526.188 46.2761 526.188 44.1299C526.188 41.9837 525.525 40.3626 524.201 39.2667C522.923 38.125 521.05 37.5542 518.585 37.5542H510.091Z" fill="white"/>
</svg>
