<svg width="136" height="106" viewBox="0 0 136 106" fill="none" xmlns="http://www.w3.org/2000/svg">
<path fill-rule="evenodd" clip-rule="evenodd" d="M66.7943 0.878352C66.4106 1.40787 62.7002 6.98837 58.5487 13.2791C54.3975 19.5701 45.5276 33.0073 38.8377 43.1397C15.8189 78.0036 13.1944 82.0254 13.1944 82.4359C13.1944 83.0496 13.6704 82.9498 16.0947 81.828C20.0117 80.0159 25.6737 77.7248 29.5807 76.371C31.6784 75.644 33.6391 74.8571 33.9381 74.6221C34.2368 74.3871 37.0017 70.3705 40.082 65.6967C65.7297 26.78 67.4515 24.2193 67.9705 24.2193C68.3743 24.2193 69.3754 25.5579 72.4385 30.1942C74.6098 33.4803 78.6469 39.5859 81.4102 43.762C84.1733 47.9382 89.7852 56.4523 93.8807 62.6824C97.9765 68.9124 101.591 74.2432 101.914 74.5287C102.237 74.8143 103.888 75.5235 105.584 76.1046C109.471 77.437 115.172 79.7169 119.033 81.4839C122.2 82.9328 123.12 83.1519 122.926 82.4108C122.863 82.1705 119.704 77.2694 115.905 71.5191C112.107 65.7689 107.356 58.5692 105.348 55.52C101.313 49.3923 70.9724 3.61582 69.5043 1.44023C68.3256 -0.306661 67.7403 -0.427898 66.7943 0.878352ZM67.0562 45.3354C66.6653 45.79 64.8893 48.3166 63.1093 50.9503C61.3293 53.5842 58.4795 57.7773 56.7764 60.2688C52.7412 66.1712 50.0393 70.3867 50.0393 70.7795C50.0393 71.3143 50.7667 71.4119 52.8691 71.1584C58.9553 70.425 71.4437 70.1678 77.9219 70.6423C79.6334 70.7678 82.0674 70.9483 83.3309 71.0439C85.3444 71.1958 85.6476 71.1661 85.787 70.8027C85.8958 70.5191 84.6981 68.5454 81.9963 64.5562C79.8239 61.3487 76.0699 55.7979 73.6541 52.2212C69.463 46.0158 68.3477 44.5089 67.9462 44.5089C67.8473 44.5089 67.4468 44.8808 67.0562 45.3354ZM59.0016 78.6158C43.1665 79.8852 30.2825 83.2059 19.1693 88.8828C13.8148 91.6178 9.90953 94.359 6.36246 97.8717C2.6476 101.551 0 104.823 0 105.735C0 106.242 0.772497 105.991 3.67577 104.538C17.2028 97.7659 35.7405 93.1546 54.871 91.8025C60.2633 91.4214 76.6388 91.4094 81.4072 91.7831C100.851 93.3067 117.231 97.3611 131.421 104.163C133.53 105.173 135.406 106 135.591 106C136.87 106 134.446 102.716 129.607 97.8919C125.938 94.2353 122.772 91.9681 117.505 89.2268C107.115 83.8196 96.3555 80.699 82.1541 78.974C78.2834 78.504 63.2918 78.272 59.0016 78.6158Z" fill="url(#paint0_linear_4_120)"/>
<defs>
<linearGradient id="paint0_linear_4_120" x1="67.9647" y1="0" x2="67.9647" y2="106" gradientUnits="userSpaceOnUse">
<stop stop-color="#F1DAB4"/>
<stop offset="1" stop-color="#FAA52E"/>
</linearGradient>
</defs>
</svg>
