<svg width="32" height="32" viewBox="0 0 32 32" fill="none" xmlns="http://www.w3.org/2000/svg">
<rect width="32" height="32" fill="#010A27"/>
<path fill-rule="evenodd" clip-rule="evenodd" d="M15.8128 7.66056C15.7514 7.74528 15.1578 8.63816 14.4935 9.64468C13.8293 10.6512 12.4101 12.8012 11.3398 14.4224C7.65676 20.0006 7.23684 20.6441 7.23684 20.7098C7.23684 20.808 7.313 20.792 7.70089 20.6125C8.32761 20.3226 9.23352 19.956 9.85864 19.7394C10.1943 19.6231 10.508 19.4972 10.5558 19.4596C10.6036 19.422 11.046 18.7793 11.5388 18.0315C15.6425 11.8048 15.918 11.3951 16.001 11.3951C16.0656 11.3951 16.2258 11.6093 16.7159 12.3511C17.0633 12.8769 17.7092 13.8538 18.1514 14.5219C18.5935 15.1901 19.4914 16.5524 20.1466 17.5492C20.802 18.546 21.3803 19.3989 21.432 19.4446C21.4836 19.4903 21.7478 19.6038 22.0192 19.6968C22.6411 19.9099 23.5532 20.2747 24.1711 20.5575C24.6777 20.7893 24.8249 20.8243 24.7939 20.7057C24.7838 20.6673 24.2784 19.8831 23.6706 18.9631C23.0628 18.043 22.3026 16.8911 21.9814 16.4032C21.3358 15.4228 16.4813 8.09855 16.2464 7.75046C16.0578 7.47095 15.9642 7.45156 15.8128 7.66056ZM15.8547 14.7737C15.7922 14.8464 15.508 15.2507 15.2232 15.6721C14.9384 16.0935 14.4825 16.7644 14.21 17.163C13.5643 18.1074 13.132 18.7819 13.132 18.8447C13.132 18.9303 13.2484 18.9459 13.5848 18.9054C14.5586 18.788 16.5567 18.7469 17.5932 18.8228C17.8671 18.8429 18.2565 18.8717 18.4587 18.887C18.7808 18.9113 18.8294 18.9066 18.8517 18.8484C18.8691 18.8031 18.6774 18.4873 18.2451 17.849C17.8976 17.3358 17.2969 16.4477 16.9104 15.8754C16.2398 14.8825 16.0614 14.6414 15.9971 14.6414C15.9813 14.6414 15.9172 14.701 15.8547 14.7737ZM14.566 20.0985C12.0324 20.3016 9.97093 20.833 8.19282 21.7413C7.33611 22.1789 6.71126 22.6175 6.14373 23.1795C5.54935 23.7681 5.12573 24.2916 5.12573 24.4376C5.12573 24.5188 5.24933 24.4786 5.71386 24.246C7.87818 23.1626 10.8442 22.4247 13.9051 22.2084C14.7679 22.1474 17.3879 22.1455 18.1509 22.2053C21.2618 22.4491 23.8826 23.0978 26.1532 24.1861C26.4905 24.3477 26.7907 24.48 26.8203 24.48C27.0249 24.48 26.637 23.9545 25.8628 23.1827C25.2759 22.5977 24.7693 22.2349 23.9266 21.7963C22.2642 20.9312 20.5426 20.4319 18.2704 20.1559C17.6511 20.0807 15.2524 20.0435 14.566 20.0985Z" fill="url(#paint0_linear_4_121)"/>
<defs>
<linearGradient id="paint0_linear_4_121" x1="16.0001" y1="7.52002" x2="16.0001" y2="24.48" gradientUnits="userSpaceOnUse">
<stop stop-color="#F1DAB4"/>
<stop offset="1" stop-color="#FAA52E"/>
</linearGradient>
</defs>
</svg>
